<svg width="195" height="60" viewBox="0 0 195 60" fill="none" xmlns="http://www.w3.org/2000/svg">
<path d="M85.5893 50.08V57H84.6793V51.84L82.3793 57H81.7393L79.4293 51.83V57H78.5193V50.08H79.4993L82.0593 55.8L84.6193 50.08H85.5893ZM92.4226 57.09C91.9093 57.09 91.4426 56.9733 91.0226 56.74C90.6093 56.5067 90.2826 56.1767 90.0426 55.75C89.8093 55.3167 89.6926 54.8167 89.6926 54.25C89.6926 53.69 89.8126 53.1967 90.0526 52.77C90.2993 52.3367 90.6326 52.0067 91.0526 51.78C91.4726 51.5467 91.9426 51.43 92.4626 51.43C92.9826 51.43 93.4526 51.5467 93.8726 51.78C94.2926 52.0067 94.6226 52.3333 94.8626 52.76C95.1093 53.1867 95.2326 53.6833 95.2326 54.25C95.2326 54.8167 95.1059 55.3167 94.8526 55.75C94.6059 56.1767 94.2693 56.5067 93.8426 56.74C93.4159 56.9733 92.9426 57.09 92.4226 57.09ZM92.4226 56.29C92.7493 56.29 93.0559 56.2133 93.3426 56.06C93.6293 55.9067 93.8593 55.6767 94.0326 55.37C94.2126 55.0633 94.3026 54.69 94.3026 54.25C94.3026 53.81 94.2159 53.4367 94.0426 53.13C93.8693 52.8233 93.6426 52.5967 93.3626 52.45C93.0826 52.2967 92.7793 52.22 92.4526 52.22C92.1193 52.22 91.8126 52.2967 91.5326 52.45C91.2593 52.5967 91.0393 52.8233 90.8726 53.13C90.7059 53.4367 90.6226 53.81 90.6226 54.25C90.6226 54.6967 90.7026 55.0733 90.8626 55.38C91.0293 55.6867 91.2493 55.9167 91.5226 56.07C91.7959 56.2167 92.0959 56.29 92.4226 56.29ZM101.999 51.42C102.666 51.42 103.206 51.6233 103.619 52.03C104.032 52.43 104.239 53.01 104.239 53.77V57H103.339V53.9C103.339 53.3533 103.202 52.9367 102.929 52.65C102.656 52.3567 102.282 52.21 101.809 52.21C101.329 52.21 100.946 52.36 100.659 52.66C100.379 52.96 100.239 53.3967 100.239 53.97V57H99.3291V51.52H100.239V52.3C100.419 52.02 100.662 51.8033 100.969 51.65C101.282 51.4967 101.626 51.42 101.999 51.42ZM113.626 54.05C113.626 54.2233 113.616 54.4067 113.596 54.6H109.216C109.249 55.14 109.432 55.5633 109.766 55.87C110.106 56.17 110.516 56.32 110.996 56.32C111.389 56.32 111.716 56.23 111.976 56.05C112.242 55.8633 112.429 55.6167 112.536 55.31H113.516C113.369 55.8367 113.076 56.2667 112.636 56.6C112.196 56.9267 111.649 57.09 110.996 57.09C110.476 57.09 110.009 56.9733 109.596 56.74C109.189 56.5067 108.869 56.1767 108.636 55.75C108.402 55.3167 108.286 54.8167 108.286 54.25C108.286 53.6833 108.399 53.1867 108.626 52.76C108.852 52.3333 109.169 52.0067 109.576 51.78C109.989 51.5467 110.462 51.43 110.996 51.43C111.516 51.43 111.976 51.5433 112.376 51.77C112.776 51.9967 113.082 52.31 113.296 52.71C113.516 53.1033 113.626 53.55 113.626 54.05ZM112.686 53.86C112.686 53.5133 112.609 53.2167 112.456 52.97C112.302 52.7167 112.092 52.5267 111.826 52.4C111.566 52.2667 111.276 52.2 110.956 52.2C110.496 52.2 110.102 52.3467 109.776 52.64C109.456 52.9333 109.272 53.34 109.226 53.86H112.686ZM122.447 51.52L119.147 59.58H118.207L119.287 56.94L117.077 51.52H118.087L119.807 55.96L121.507 51.52H122.447Z" fill="#EF3E37"/>
<path fill-rule="evenodd" clip-rule="evenodd" d="M111.183 19.1852V17.8148C111.183 13.2738 107.18 9.59259 102.242 9.59259C97.3041 9.59259 93.3011 13.2738 93.3011 17.8148V19.1852C93.3011 23.7262 97.3041 27.4074 102.242 27.4074C107.18 27.4074 111.183 23.7262 111.183 19.1852ZM102.242 0C91.5431 0 82.8699 7.97597 82.8699 17.8148V19.1852C82.8699 29.024 91.5431 37 102.242 37C112.941 37 121.614 29.024 121.614 19.1852V17.8148C121.614 7.97597 112.941 0 102.242 0Z" fill="#EE0000"/>
<path fill-rule="evenodd" clip-rule="evenodd" d="M88.0612 19.5C88.0612 27.0533 94.6511 33.1765 102.78 33.1765C110.909 33.1765 117.499 27.0533 117.499 19.5C117.499 11.9467 110.909 5.82353 102.78 5.82353C94.6511 5.82353 88.0612 11.9467 88.0612 19.5ZM102.78 4C93.5672 4 86.0986 10.9396 86.0986 19.5C86.0986 28.0604 93.5672 35 102.78 35C111.993 35 119.462 28.0604 119.462 19.5C119.462 10.9396 111.993 4 102.78 4Z" fill="white"/>
<path d="M135.098 26.84L140.698 9.84H146.658L138.458 32H131.658L123.498 9.84H129.498L135.098 26.84ZM170.403 20.44C170.403 21.24 170.35 21.96 170.243 22.6H154.043C154.176 24.2 154.736 25.4533 155.723 26.36C156.71 27.2667 157.923 27.72 159.363 27.72C161.443 27.72 162.923 26.8267 163.803 25.04H169.843C169.203 27.1733 167.976 28.9333 166.163 30.32C164.35 31.68 162.123 32.36 159.483 32.36C157.35 32.36 155.43 31.8933 153.723 30.96C152.043 30 150.723 28.6533 149.763 26.92C148.83 25.1867 148.363 23.1867 148.363 20.92C148.363 18.6267 148.83 16.6133 149.763 14.88C150.696 13.1467 152.003 11.8133 153.683 10.88C155.363 9.94667 157.296 9.48 159.483 9.48C161.59 9.48 163.47 9.93333 165.123 10.84C166.803 11.7467 168.096 13.04 169.003 14.72C169.936 16.3733 170.403 18.28 170.403 20.44ZM164.603 18.84C164.576 17.4 164.056 16.2533 163.043 15.4C162.03 14.52 160.79 14.08 159.323 14.08C157.936 14.08 156.763 14.5067 155.803 15.36C154.87 16.1867 154.296 17.3467 154.083 18.84H164.603ZM180.09 13.28C180.81 12.1067 181.744 11.1867 182.89 10.52C184.064 9.85333 185.397 9.52 186.89 9.52V15.4H185.41C183.65 15.4 182.317 15.8133 181.41 16.64C180.53 17.4667 180.09 18.9067 180.09 20.96V32H174.49V9.84H180.09V13.28Z" fill="white"/>
<path d="M29.244 33L23.854 23.48H21.544V33H16.644V8.57H25.814C27.704 8.57 29.314 8.90833 30.644 9.585C31.974 10.2383 32.9657 11.1367 33.619 12.28C34.2957 13.4 34.634 14.66 34.634 16.06C34.634 17.67 34.1673 19.1283 33.234 20.435C32.3007 21.7183 30.9123 22.605 29.069 23.095L34.914 33H29.244ZM21.544 19.805H25.639C26.969 19.805 27.9607 19.49 28.614 18.86C29.2673 18.2067 29.594 17.3083 29.594 16.165C29.594 15.045 29.2673 14.1817 28.614 13.575C27.9607 12.945 26.969 12.63 25.639 12.63H21.544V19.805ZM47.6759 33.315C45.8092 33.315 44.1292 32.9067 42.6359 32.09C41.1425 31.25 39.9642 30.0717 39.1009 28.555C38.2609 27.0383 37.8409 25.2883 37.8409 23.305C37.8409 21.3217 38.2725 19.5717 39.1359 18.055C40.0225 16.5383 41.2242 15.3717 42.7409 14.555C44.2575 13.715 45.9492 13.295 47.8159 13.295C49.6825 13.295 51.3742 13.715 52.8909 14.555C54.4075 15.3717 55.5975 16.5383 56.4609 18.055C57.3475 19.5717 57.7909 21.3217 57.7909 23.305C57.7909 25.2883 57.3359 27.0383 56.4259 28.555C55.5392 30.0717 54.3259 31.25 52.7859 32.09C51.2692 32.9067 49.5659 33.315 47.6759 33.315ZM47.6759 29.045C48.5625 29.045 49.3909 28.835 50.1609 28.415C50.9542 27.9717 51.5842 27.3183 52.0509 26.455C52.5175 25.5917 52.7509 24.5417 52.7509 23.305C52.7509 21.4617 52.2609 20.05 51.2809 19.07C50.3242 18.0667 49.1459 17.565 47.7459 17.565C46.3459 17.565 45.1675 18.0667 44.2109 19.07C43.2775 20.05 42.8109 21.4617 42.8109 23.305C42.8109 25.1483 43.2659 26.5717 44.1759 27.575C45.1092 28.555 46.2759 29.045 47.6759 29.045ZM66.2852 7.1V33H61.3852V7.1H66.2852ZM76.0264 7.1V33H71.1264V7.1H76.0264Z" fill="white"/>
</svg>
