<svg width="119" height="30" viewBox="0 0 119 30" fill="none" xmlns="http://www.w3.org/2000/svg">
<path d="M2.94092 27.8248H28.5909V2.1748H2.94092V27.8248ZM23.6539 12.5318H18.2339V7.1118H23.6539V12.5318ZM7.87692 7.1118H13.2999V17.4678H23.6539V22.8878H7.87692V7.1118ZM45.2939 2.1748C42.7573 2.1748 40.2777 2.92698 38.1687 4.33621C36.0596 5.74544 34.4158 7.74844 33.4451 10.0919C32.4744 12.4354 32.2205 15.014 32.7153 17.5018C33.2102 19.9896 34.4316 22.2748 36.2252 24.0684C38.0188 25.8621 40.304 27.0835 42.7918 27.5784C45.2797 28.0732 47.8583 27.8193 50.2018 26.8486C52.5453 25.8779 54.5482 24.2341 55.9575 22.125C57.3667 20.0159 58.1189 17.5363 58.1189 14.9998C58.1149 11.5996 56.7624 8.33984 54.3581 5.93555C51.9538 3.53125 48.6941 2.17877 45.2939 2.1748ZM45.2939 22.8878C43.7338 22.8878 42.2087 22.4252 40.9115 21.5584C39.6144 20.6917 38.6033 19.4598 38.0063 18.0184C37.4093 16.5771 37.2531 14.9911 37.5574 13.4609C37.8618 11.9308 38.6131 10.5253 39.7162 9.42215C40.8194 8.319 42.2249 7.56773 43.755 7.26337C45.2851 6.95901 46.8711 7.11522 48.3125 7.71224C49.7538 8.30927 50.9858 9.32029 51.8525 10.6175C52.7193 11.9146 53.1819 13.4397 53.1819 14.9998C53.1787 17.0909 52.3466 19.0954 50.868 20.574C49.3894 22.0526 47.3849 22.8846 45.2939 22.8878ZM104.013 2.1748C101.476 2.17461 98.9966 2.92661 96.8874 4.33572C94.7782 5.74483 93.1343 7.74776 92.1634 10.0912C91.1926 12.4346 90.9384 15.0134 91.4332 17.5012C91.9279 19.9891 93.1493 22.2744 94.9429 24.0681C96.7364 25.8618 99.0216 27.0834 101.51 27.5783C103.997 28.0732 106.576 27.8193 108.92 26.8487C111.263 25.878 113.266 24.2342 114.675 22.1251C116.085 20.016 116.837 17.5364 116.837 14.9998C116.833 11.5998 115.481 8.34016 113.077 5.9359C110.673 3.53163 107.413 2.17904 104.013 2.1748ZM104.013 22.8878C102.453 22.888 100.928 22.4255 99.6303 21.5589C98.333 20.6923 97.3218 19.4604 96.7246 18.0191C96.1274 16.5778 95.9711 14.9917 96.2753 13.4615C96.5796 11.9314 97.3308 10.5258 98.4339 9.4225C99.537 8.31924 100.943 7.56788 102.473 7.26344C104.003 6.959 105.589 7.11515 107.03 7.71215C108.472 8.30914 109.704 9.32016 110.571 10.6174C111.437 11.9146 111.9 13.4397 111.9 14.9998C111.897 17.0907 111.065 19.095 109.586 20.5736C108.108 22.0522 106.104 22.8844 104.013 22.8878ZM74.6529 2.1748C72.1163 2.1748 69.6367 2.92698 67.5277 4.33621C65.4186 5.74544 63.7748 7.74844 62.8041 10.0919C61.8334 12.4354 61.5795 15.014 62.0743 17.5018C62.5692 19.9896 63.7906 22.2748 65.5842 24.0684C67.3778 25.8621 69.663 27.0835 72.1508 27.5784C74.6386 28.0732 77.2173 27.8193 79.5608 26.8486C81.9043 25.8779 83.9072 24.2341 85.3165 22.125C86.7257 20.0159 87.4779 17.5363 87.4779 14.9998C87.4739 11.5996 86.1214 8.33984 83.7171 5.93555C81.3128 3.53125 78.0531 2.17877 74.6529 2.1748ZM74.6529 22.8878C73.1993 22.8885 71.7739 22.4876 70.5338 21.7293C69.2938 20.971 68.2873 19.8849 67.6256 18.5907C66.964 17.2965 66.6727 15.8446 66.7841 14.3954C66.8955 12.9461 67.4051 11.5558 68.2568 10.3779C69.1085 9.20006 70.2691 8.28041 71.6104 7.72051C72.9518 7.1606 74.4218 6.98222 75.8581 7.20504C77.2945 7.42787 78.6413 8.04324 79.75 8.98323C80.8587 9.92321 81.6861 11.1513 82.1409 12.5318H74.6529V17.4678H82.1409C81.62 19.0431 80.6164 20.4145 79.2723 21.3873C77.9283 22.3602 76.3121 22.8851 74.6529 22.8878Z" fill="white" fill-opacity="0.8"/>
</svg>
