<svg width="236" height="60" viewBox="0 0 236 60" fill="none" xmlns="http://www.w3.org/2000/svg">
<path d="M27.2104 11.7354V4.23535H3.61035V55.7648H27.2104V48.2648C22.3759 48.2648 17.7394 46.3404 14.3209 42.9151C10.9025 39.4898 8.98199 34.8442 8.98199 30.0001C8.98199 25.156 10.9025 20.5102 14.3209 17.085C17.7394 13.6597 22.3759 11.7354 27.2104 11.7354Z" fill="white" fill-opacity="0.8"/>
<path d="M27.2104 11.7354V48.2648C32.0449 48.2648 36.6814 46.3404 40.0999 42.9151C43.5184 39.4898 45.4388 34.8442 45.4388 30.0001C45.4388 25.156 43.5184 20.5102 40.0999 17.085C36.6814 13.6597 32.0449 11.7354 27.2104 11.7354Z" fill="white" fill-opacity="0.8"/>
<path d="M58.6831 16.3237H63.9667V41.8237H58.6831V16.3237Z" fill="white" fill-opacity="0.8"/>
<path d="M66.9251 33.0882C66.9251 31.2537 67.4688 29.4604 68.4872 27.9357C69.5055 26.4109 70.9526 25.2235 72.6453 24.5238C74.338 23.8242 76.1998 23.6439 77.9948 24.0057C79.7898 24.3674 81.4372 25.2551 82.7282 26.556C84.0191 27.8571 84.8957 29.5128 85.2465 31.3135C85.5972 33.1142 85.4066 34.9786 84.6986 36.6706C83.9906 38.3624 82.7974 39.8058 81.2699 40.8173C79.7424 41.829 77.9495 42.3634 76.1186 42.3529C74.9042 42.3625 73.7001 42.129 72.577 41.6659C71.4539 41.2031 70.4341 40.5201 69.5779 39.6574C68.7216 38.7944 68.046 37.7688 67.5904 36.6408C67.1349 35.5128 66.9088 34.305 66.9251 33.0882ZM80.1693 33.0882C80.1485 32.2973 79.8955 31.53 79.4418 30.8825C78.9881 30.2349 78.3541 29.7357 77.6186 29.4473C76.8833 29.1589 76.0795 29.0942 75.3077 29.2613C74.5358 29.4282 73.8303 29.8195 73.2792 30.3863C72.7281 30.9529 72.356 31.6698 72.2094 32.4473C72.0629 33.2248 72.1483 34.0283 72.4551 34.7573C72.7619 35.4863 73.2764 36.1087 73.9343 36.5462C74.5922 36.9838 75.3641 37.2173 76.1538 37.2177C76.6915 37.2282 77.2255 37.1275 77.7225 36.9217C78.2195 36.7161 78.6688 36.4099 79.0423 36.0224C79.4159 35.6349 79.7056 35.1741 79.8935 34.6694C80.0814 34.1645 80.1633 33.6263 80.1341 33.0882H80.1693Z" fill="white" fill-opacity="0.8"/>
<path d="M106.218 24.3527V40.9586C106.218 46.8174 101.639 49.3056 97.0066 49.3056C95.3727 49.4399 93.7339 49.1147 92.2748 48.3665C90.8154 47.6182 89.5935 46.4766 88.7466 45.0703L93.2024 42.4939C93.5634 43.2234 94.1378 43.8252 94.8489 44.2192C95.5601 44.6133 96.3741 44.7809 97.1827 44.6998C97.6978 44.7633 98.2206 44.7121 98.7135 44.5498C99.2066 44.3872 99.6577 44.1178 100.035 43.7602C100.412 43.4027 100.705 42.9663 100.894 42.4819C101.083 41.9976 101.163 41.4774 101.128 40.9586V39.3527C100.513 40.0997 99.7327 40.6926 98.8493 41.0848C97.9657 41.4769 97.0032 41.6572 96.0379 41.6115C93.7024 41.6115 91.4627 40.6819 89.8112 39.0271C88.1597 37.3725 87.2319 35.1282 87.2319 32.788C87.2319 30.4478 88.1597 28.2036 89.8112 26.5489C91.4627 24.8941 93.7024 23.9645 96.0379 23.9645C97.0032 23.9188 97.9657 24.0991 98.8493 24.4912C99.7327 24.8833 100.513 25.4763 101.128 26.2233V24.4586L106.218 24.3527ZM101.128 32.7351C101.163 31.8908 100.945 31.0552 100.503 30.3359C100.06 29.6166 99.4129 29.0465 98.6441 28.6986C97.8755 28.3508 97.0208 28.2414 96.1895 28.3843C95.3584 28.5273 94.5888 28.9161 93.9799 29.5007C93.3711 30.0853 92.9507 30.8392 92.7728 31.6653C92.595 32.4913 92.6677 33.3516 92.9817 34.1359C93.2959 34.9201 93.8369 35.5923 94.5353 36.0659C95.2337 36.5396 96.0576 36.7932 96.9009 36.7939C97.4513 36.8336 98.0037 36.7572 98.5226 36.5698C99.0416 36.3822 99.5157 36.0876 99.9139 35.7051C100.312 35.3226 100.626 34.8606 100.835 34.3491C101.044 33.8375 101.144 33.2876 101.128 32.7351Z" fill="white" fill-opacity="0.8"/>
<path d="M109.194 33.0885C109.194 31.2553 109.737 29.4634 110.754 27.9394C111.77 26.4154 113.215 25.2279 114.906 24.5274C116.596 23.8266 118.456 23.6441 120.251 24.0031C122.045 24.362 123.692 25.2461 124.985 26.5435C126.277 27.8411 127.156 29.4936 127.511 31.2918C127.866 33.0902 127.68 34.9536 126.978 36.6461C126.275 38.3388 125.087 39.7845 123.564 40.8004C122.042 41.8164 120.252 42.3567 118.423 42.3532C117.206 42.365 115.999 42.1333 114.873 41.6716C113.747 41.21 112.724 40.5278 111.864 39.6648C111.005 38.8019 110.326 37.7757 109.867 36.6465C109.409 35.5172 109.18 34.3075 109.194 33.0885ZM122.438 33.0885C122.417 32.2968 122.164 31.5288 121.709 30.8808C121.255 30.233 120.62 29.7338 119.883 29.4459C119.147 29.1581 118.342 29.0944 117.57 29.2629C116.798 29.4313 116.092 29.8245 115.542 30.3929C114.991 30.9613 114.621 31.6799 114.476 32.4585C114.332 33.2371 114.42 34.0411 114.729 34.7697C115.038 35.4985 115.556 36.1195 116.216 36.5551C116.876 36.9904 117.65 37.2211 118.44 37.2179C118.978 37.2285 119.512 37.1277 120.009 36.9219C120.506 36.7164 120.955 36.4102 121.329 36.0226C121.702 35.6351 121.992 35.1744 122.18 34.6696C122.368 34.1648 122.45 33.6265 122.421 33.0885H122.438Z" fill="white" fill-opacity="0.8"/>
<path d="M130.1 19.6763C130.1 19.0552 130.283 18.4477 130.628 17.9312C130.972 17.4146 131.462 17.012 132.035 16.7743C132.608 16.5365 133.238 16.4743 133.846 16.5955C134.454 16.7167 135.013 17.0159 135.451 17.4552C135.89 17.8945 136.188 18.4543 136.309 19.0635C136.43 19.6728 136.368 20.3044 136.131 20.8785C135.894 21.4523 135.492 21.9429 134.976 22.2881C134.461 22.6333 133.855 22.8175 133.235 22.8175C132.406 22.8083 131.614 22.4745 131.028 21.8873C130.442 21.3002 130.109 20.5066 130.1 19.6763ZM130.61 24.3528H135.894V41.8234H130.61V24.3528Z" fill="white" fill-opacity="0.8"/>
<path d="M158.508 33.0882C158.567 34.2501 158.396 35.4123 158.005 36.5078C157.615 37.6034 157.011 38.6107 156.231 39.4717C155.45 40.3328 154.507 41.0306 153.456 41.5251C152.405 42.0196 151.267 42.3008 150.107 42.3529C149.122 42.4186 148.136 42.2606 147.221 41.8909C146.306 41.521 145.487 40.9491 144.823 40.2176V48.847H139.54V24.3529H144.823V25.9941C145.487 25.2647 146.308 24.6954 147.223 24.3287C148.138 23.9618 149.124 23.8073 150.107 23.8764C151.262 23.9285 152.396 24.2082 153.443 24.6993C154.49 25.1904 155.431 25.8836 156.211 26.739C156.991 27.5943 157.596 28.5953 157.99 29.6848C158.384 30.7741 158.56 31.9306 158.508 33.0882ZM153.224 33.0882C153.203 32.2685 152.941 31.4733 152.471 30.8022C152.002 30.1311 151.344 29.6137 150.582 29.3153C149.82 29.0167 148.987 28.9503 148.187 29.1241C147.388 29.298 146.657 29.7046 146.087 30.2927C145.517 30.8809 145.133 31.6246 144.983 32.4307C144.833 33.2366 144.924 34.069 145.244 34.8236C145.564 35.578 146.099 36.2211 146.783 36.6721C147.466 37.1232 148.267 37.362 149.085 37.3588C149.646 37.3826 150.205 37.2875 150.726 37.0796C151.247 36.8717 151.719 36.5558 152.11 36.1526C152.5 35.7494 152.802 35.2678 152.994 34.7398C153.186 34.2116 153.264 33.6488 153.224 33.0882Z" fill="white" fill-opacity="0.8"/>
<path d="M174.587 36.5822C174.587 40.6057 171.065 42.3175 167.331 42.3175C165.808 42.4548 164.279 42.1313 162.942 41.3889C161.604 40.6465 160.52 39.5192 159.828 38.1528L164.372 35.5763C164.552 36.206 164.942 36.7546 165.478 37.1305C166.013 37.5064 166.661 37.6866 167.313 37.641C168.564 37.641 169.198 37.2528 169.198 36.5469C169.198 34.6234 160.621 35.6469 160.621 29.594C160.621 25.7822 163.826 23.8763 167.454 23.8763C168.833 23.8144 170.203 24.128 171.419 24.7836C172.634 25.4392 173.65 26.4124 174.358 27.5999L169.814 29.9999C169.613 29.5446 169.285 29.1574 168.87 28.8849C168.454 28.6125 167.968 28.4665 167.472 28.4646C166.556 28.4646 166.01 28.8175 166.01 29.4352C166.01 31.4469 174.587 30.1234 174.587 36.5822Z" fill="white" fill-opacity="0.8"/>
<path d="M193.731 24.353V41.8236H188.448V40.1824C187.847 40.909 187.085 41.4837 186.223 41.8609C185.36 42.238 184.422 42.4065 183.481 42.353C179.959 42.353 176.947 39.8295 176.947 35.1177V24.353H182.231V34.3236C182.189 34.7404 182.238 35.1613 182.375 35.5573C182.513 35.9531 182.733 36.3146 183.022 36.6167C183.312 36.9186 183.664 37.154 184.054 37.3067C184.443 37.4591 184.86 37.5251 185.278 37.5001C187.18 37.5001 188.518 36.3707 188.518 33.9707V24.353H193.731Z" fill="white" fill-opacity="0.8"/>
<path d="M223.672 31.094V41.8234H218.388V31.5528C218.388 29.7881 217.56 28.694 215.887 28.694C214.214 28.694 213.157 29.9117 213.157 31.9764V41.8234H207.874V31.5528C207.874 29.7881 207.046 28.694 205.373 28.694C203.7 28.694 202.643 29.9117 202.643 31.9764V41.8234H197.359V24.3528H202.643V25.9587C203.191 25.2493 203.904 24.6874 204.723 24.3239C205.54 23.9604 206.437 23.8065 207.328 23.8764C208.221 23.8296 209.112 24.0167 209.911 24.4188C210.711 24.821 211.393 25.4247 211.889 26.1705C212.47 25.3912 213.238 24.7721 214.122 24.371C215.005 23.9697 215.977 23.7996 216.944 23.8764C221.065 23.8764 223.672 26.7352 223.672 31.094Z" fill="white" fill-opacity="0.8"/>
<path d="M228.11 24.2471C230.25 24.2471 231.985 22.5089 231.985 20.3648C231.985 18.2207 230.25 16.4824 228.11 16.4824C225.97 16.4824 224.235 18.2207 224.235 20.3648C224.235 22.5089 225.97 24.2471 228.11 24.2471Z" fill="white" fill-opacity="0.8"/>
</svg>
